<?xml version="1.0" encoding="utf-8"?>
<!-- Generator: Adobe Illustrator 25.2.3, SVG Export Plug-In . SVG Version: 6.00 Build 0)  -->
<svg version="1.1" id="Camada_1" xmlns="http://www.w3.org/2000/svg" xmlns:xlink="http://www.w3.org/1999/xlink" x="0px" y="0px"
	 viewBox="0 0 48 48" style="enable-background:new 0 0 48 48;" xml:space="preserve">
<style type="text/css">
	.st0{fill-rule:evenodd;clip-rule:evenodd;fill:#FFFFFF;}
</style>
<path class="st0" d="M23.8,47.8c4.8,0,8.1-0.1,9.9-0.2c4.3-0.2,7.7-1.5,10.1-3.9c2.4-2.4,3.7-5.7,3.9-10.1c0.1-1.8,0.2-5.1,0.2-9.9
	c0-4.8-0.1-8.1-0.2-9.9c-0.2-4.3-1.5-7.7-3.9-10.1C41.4,1.5,38.1,0.2,33.7,0c-1.8-0.1-5.1-0.2-9.9-0.2c-4.8,0-8.1,0.1-9.9,0.2
	C9.6,0.2,6.2,1.5,3.9,3.9C1.5,6.2,0.2,9.6,0,13.9c-0.1,1.6-0.1,4.4-0.2,8.4v3.1c0,4,0.1,6.7,0.2,8.4c0.2,4.3,1.5,7.7,3.9,10.1
	c2.4,2.4,5.7,3.7,10.1,3.9C15.8,47.8,19.1,47.8,23.8,47.8z M20,43.5h-0.8c-0.4,0-0.7,0-1,0c-0.8,0-1.8,0-3-0.1
	c-1.3-0.1-2.3-0.2-3.2-0.3c-0.9-0.2-1.6-0.3-2.2-0.6c-1-0.4-2-1-2.8-1.8C6.1,39.9,5.5,39,5.1,38c-0.2-0.6-0.4-1.3-0.6-2.2
	c-0.2-0.9-0.3-2-0.3-3.2c-0.1-1.3-0.1-2.3-0.1-3c0-0.8,0-1.8,0-3.3c0-0.9,0-1.6,0-2l0-0.3l0-0.1l0-0.1l0-0.1l0-0.3c0-0.4,0-1.1,0-2
	c0-1.4,0-2.5,0-3.3c0-0.8,0-1.8,0.1-3c0.1-1.3,0.2-2.3,0.3-3.2c0.2-0.9,0.3-1.6,0.6-2.2c0.4-1,1-2,1.8-2.8c0.8-0.8,1.7-1.4,2.8-1.8
	c0.6-0.2,1.3-0.4,2.2-0.6c0.9-0.2,2-0.3,3.2-0.3c1.3-0.1,2.3-0.1,3-0.1c0.3,0,0.6,0,1,0H20c0.4,0,0.9,0,1.5,0c0.9,0,1.6,0,2,0l0.3,0
	l0.1,0h2.4c0.7,0,1.4,0,1.9,0l0.8,0c0.2,0,0.4,0,0.6,0c0.8,0,1.8,0,3,0.1c1.3,0.1,2.3,0.2,3.2,0.3c0.9,0.2,1.6,0.3,2.2,0.6
	c1,0.4,2,1,2.8,1.8c0.8,0.8,1.4,1.7,1.8,2.8c0.2,0.6,0.4,1.3,0.6,2.2c0.2,0.9,0.3,2,0.3,3.2c0.1,1.3,0.1,2.3,0.1,3c0,0.3,0,0.6,0,1
	V20c0,0.4,0,0.9,0,1.5c0,0.9,0,1.6,0,2l0,0.4v0.1v0.1l0,0.4c0,0.4,0,1.1,0,2c0,0.5,0,1,0,1.5v0.8c0,0.4,0,0.7,0,1c0,0.7,0,1.8-0.1,3
	c-0.1,1.3-0.2,2.3-0.3,3.2c-0.2,0.9-0.3,1.6-0.6,2.2c-0.4,1-1,2-1.8,2.8c-0.8,0.8-1.7,1.4-2.8,1.8c-0.6,0.2-1.3,0.4-2.2,0.6
	c-0.9,0.2-2,0.3-3.2,0.3c-1.3,0.1-2.3,0.1-3,0.1c-0.3,0-0.6,0-1,0h-0.8c-0.4,0-0.9,0-1.5,0c-0.9,0-1.6,0-2,0l-0.4,0l-0.1,0l-0.1,0
	l-0.4,0c-0.4,0-1.1,0-2,0C20.9,43.5,20.4,43.5,20,43.5z M38.7,13c-0.6,0.6-1.2,0.8-2,0.8c-0.8,0-1.5-0.3-2-0.8
	c-0.6-0.6-0.8-1.2-0.8-2c0-0.8,0.3-1.5,0.8-2c0.6-0.6,1.2-0.8,2-0.8c0.8,0,1.5,0.3,2,0.8c0.6,0.6,0.8,1.2,0.8,2
	C39.5,11.8,39.2,12.5,38.7,13z M23.8,36.1c3.4,0,6.3-1.2,8.7-3.6c2.4-2.4,3.6-5.3,3.6-8.7c0-3.4-1.2-6.3-3.6-8.7
	c-2.4-2.4-5.3-3.6-8.7-3.6c-3.4,0-6.3,1.2-8.7,3.6c-2.4,2.4-3.6,5.3-3.6,8.7c0,3.4,1.2,6.3,3.6,8.7C17.5,34.9,20.4,36.1,23.8,36.1z
	 M18.2,29.5c1.6,1.6,3.4,2.3,5.7,2.3c2.2,0,4.1-0.8,5.7-2.3s2.3-3.4,2.3-5.7c0-2.2-0.8-4.1-2.3-5.7c-1.6-1.6-3.4-2.3-5.7-2.3
	c-2.2,0-4.1,0.8-5.7,2.3c-1.6,1.6-2.3,3.4-2.3,5.7C15.8,26,16.6,27.9,18.2,29.5z"/>
</svg>
