<?xml version="1.0" encoding="utf-8"?>
<!-- Generator: Adobe Illustrator 25.2.3, SVG Export Plug-In . SVG Version: 6.00 Build 0)  -->
<svg version="1.1" id="Camada_1" xmlns="http://www.w3.org/2000/svg" xmlns:xlink="http://www.w3.org/1999/xlink" x="0px" y="0px"
	 viewBox="0 0 48 48" style="enable-background:new 0 0 48 48;" xml:space="preserve">
<style type="text/css">
	.st0{fill-rule:evenodd;clip-rule:evenodd;fill:#FFFFFF;}
</style>
<path class="st0" d="M16.7,43.7c-0.3,0.3-0.7,0.5-1.3,0.5c-0.2,0-0.5,0-0.6-0.1c-0.3-0.1-0.6-0.3-0.8-0.5c-0.2-0.2-0.3-0.5-0.3-0.8
	v-10L1.1,28.5c-0.7-0.2-1-0.6-1.1-1.2c-0.1-0.6,0.2-1,0.9-1.3L45.4,4.7c0.6-0.3,1.2-0.3,1.8,0c0.6,0.4,0.8,0.8,0.7,1.4l-6.9,34
	c-0.1,0.4-0.4,0.8-0.9,1c-0.2,0.1-0.5,0.2-0.8,0.2c-0.2,0-0.4,0-0.6-0.1l-14.1-4.8L16.7,43.7z M24.9,33.5l13.2,4.4L44,8.6L5.6,26.9
	l9,3l23.1-14.1L24.9,33.5z"/>
</svg>
