<?xml version="1.0" encoding="utf-8"?>
<!-- Generator: Adobe Illustrator 25.2.3, SVG Export Plug-In . SVG Version: 6.00 Build 0)  -->
<svg version="1.1" id="Camada_1" xmlns="http://www.w3.org/2000/svg" xmlns:xlink="http://www.w3.org/1999/xlink" x="0px" y="0px"
	 viewBox="0 0 48 48" style="enable-background:new 0 0 48 48;" xml:space="preserve">
<style type="text/css">
	.st0{fill:#FFFFFF;}
</style>
<path class="st0" d="M14.8,43.3c3.5,0,6.8-0.6,9.8-1.7c3.1-1.1,5.7-2.6,7.9-4.4c2.2-1.9,4-4,5.6-6.4c1.6-2.4,2.7-4.9,3.5-7.6
	c0.8-2.6,1.2-5.3,1.2-7.9c0-0.6,0-1,0-1.3c1.9-1.4,3.6-3.1,4.9-5.1c-1.9,0.8-3.8,1.3-5.7,1.5c2.1-1.3,3.6-3.1,4.3-5.4
	c-1.9,1.2-4,1.9-6.2,2.4c-1.9-2.1-4.3-3.1-7.2-3.1c-2.7,0-5,1-7,2.9c-1.9,1.9-2.9,4.2-2.9,7c0,0.7,0.1,1.5,0.2,2.3
	c-4-0.2-7.8-1.2-11.3-3c-3.5-1.8-6.5-4.2-9-7.3c-0.9,1.5-1.3,3.2-1.3,5c0,1.7,0.4,3.2,1.2,4.7s1.9,2.6,3.2,3.5
	C4.5,19.2,3,18.8,1.6,18v0.1c0,2.4,0.7,4.5,2.2,6.3c1.5,1.8,3.4,2.9,5.6,3.4c-0.9,0.2-1.7,0.3-2.6,0.3c-0.6,0-1.2-0.1-1.9-0.2
	c0.6,2,1.8,3.6,3.5,4.9c1.7,1.3,3.6,1.9,5.7,2C10.7,37.6,6.6,39,2,39c-0.9,0-1.7,0-2.4-0.1C4.2,41.8,9.3,43.3,14.8,43.3z"/>
</svg>
