<?xml version="1.0" encoding="utf-8"?>
<!-- Generator: Adobe Illustrator 25.2.3, SVG Export Plug-In . SVG Version: 6.00 Build 0)  -->
<svg version="1.1" id="Layer_1" xmlns="http://www.w3.org/2000/svg" xmlns:xlink="http://www.w3.org/1999/xlink" x="0px" y="0px"
	 viewBox="0 0 48 48.1" style="enable-background:new 0 0 48 48.1;" xml:space="preserve">
<style type="text/css">
	.st0{fill:#FFFFFF;}
</style>
<g>
	<path class="st0" d="M21.5,43.2c-0.4,1.8-1.4,3.2-3,4c-2.1,1.1-4.1,1-6.1-0.2c-2-1.3-2.9-3.2-2.7-5.6c0-0.4-0.1-0.6-0.4-0.7
		c-3.6-1.9-6.4-4.5-8.3-8c-0.4-0.7-0.7-1.4-0.8-2.2c-0.3-1.1,0.1-1.6,1.2-1.7c1.3-0.1,2.5-0.7,3.1-1.9c0.3-0.6,0.4-1.2,0.4-1.8
		c0.1-1.6,0-3.2,0.1-4.7c0.4-6.1,2.9-11.1,7.6-15.1c4.3-3.7,9.2-5.4,14.8-5.2c9.8,0.4,18.2,7.3,20.2,16.9c1.8,8.7-0.9,16-7.9,21.7
		c-0.4,0.3-0.8,0.7-1.3,1c-0.3,0.2-0.3,0.3-0.2,0.6c0.9,2.8-0.4,5.9-2.9,7.2c-3.5,1.7-7.5,0-8.6-3.8c0-0.1-0.2-0.3-0.3-0.3
		C24.7,43.2,23.1,43.2,21.5,43.2L21.5,43.2z M21.6,40.8c1.7,0,3.3,0.1,5,0c1.5-0.1,3.1-0.2,4.5-0.6C42.7,37.3,49,24.4,43.9,13.5
		C40.8,6.9,35.5,3.2,28.3,2.4c-5.5-0.6-10.5,1.1-14.7,4.8c-4.1,3.7-6.2,8.3-6.4,13.9c0,1.3,0,2.6,0,3.9c0,2.8-1.6,5-4.3,5.8
		c0,0-0.1,0.1-0.1,0.1c1,2.7,5.2,6.7,7.8,7.7C13.9,34.1,20.5,35.7,21.6,40.8L21.6,40.8z"/>
	<path class="st0" d="M29.3,31.2c-4.3-0.2-7.2-1.9-9-5.4c-0.4-0.8,0-1.7,0.8-1.9c0.5-0.1,1,0.3,1.4,0.8c0.5,0.7,1,1.5,1.6,2.1
		c3.4,3.3,9.1,2.2,11.3-2c0.3-0.5,0.6-0.9,1.2-0.9c0.9,0,1.4,1,1,1.8c-1.1,2.3-2.9,4-5.4,4.8C31.1,30.9,30,31,29.3,31.2L29.3,31.2z"
		/>
	<path class="st0" d="M21.6,19.2c-1.3,0-2.4-1.1-2.4-2.4s1.1-2.4,2.4-2.4s2.4,1.1,2.4,2.4C24,18.1,23,19.2,21.6,19.2L21.6,19.2z"/>
	<path class="st0" d="M38.4,16.7c0,1.3-1.1,2.4-2.3,2.4c-1.3,0-2.4-1-2.4-2.4c0-1.3,1-2.4,2.3-2.4C37.3,14.4,38.4,15.4,38.4,16.7
		L38.4,16.7z"/>
</g>
</svg>
