<?xml version="1.0" encoding="utf-8"?>
<!-- Generator: Adobe Illustrator 25.2.3, SVG Export Plug-In . SVG Version: 6.00 Build 0)  -->
<svg version="1.1" id="Camada_1" xmlns="http://www.w3.org/2000/svg" xmlns:xlink="http://www.w3.org/1999/xlink" x="0px" y="0px"
	 viewBox="0 0 48 48" style="enable-background:new 0 0 48 48;" xml:space="preserve">
<style type="text/css">
	.st0{fill-rule:evenodd;clip-rule:evenodd;fill:#FFFFFF;}
</style>
<path class="st0" d="M-0.2,48l13-4.2c3.5,2,7.3,2.9,11.4,2.9c3.2,0,6.2-0.6,9.1-1.9c2.9-1.2,5.4-2.9,7.5-5c2.1-2.1,3.8-4.6,5-7.5
	c1.3-2.9,1.9-6,1.9-9.1c0-3.2-0.6-6.2-1.9-9.1c-1.2-2.9-2.9-5.4-5-7.5c-2.1-2.1-4.6-3.8-7.5-5c-2.9-1.3-6-1.9-9.1-1.9
	S18,0.3,15.1,1.5c-2.9,1.2-5.4,2.9-7.5,5c-2.1,2.1-3.8,4.6-5,7.5c-1.3,2.9-1.9,6-1.9,9.1c0,4.4,1.1,8.4,3.4,12.2L-0.2,48z
	 M24.3,42.8c-3.9,0-7.5-1.1-10.8-3.2L5.9,42l2.5-7.3c-2.5-3.4-3.8-7.3-3.8-11.5c0-2.6,0.5-5.2,1.6-7.6c1-2.4,2.4-4.5,4.2-6.3
	c1.7-1.8,3.8-3.1,6.3-4.2c2.4-1,5-1.6,7.6-1.6s5.2,0.5,7.6,1.6c2.4,1,4.5,2.4,6.3,4.2c1.7,1.7,3.1,3.8,4.2,6.3c1,2.4,1.6,5,1.6,7.6
	c0,2.6-0.5,5.2-1.6,7.6s-2.4,4.5-4.2,6.3c-1.7,1.7-3.8,3.1-6.3,4.2C29.4,42.3,26.9,42.8,24.3,42.8z M33.8,34.2
	c-1.1,0.6-2.2,0.8-3.2,0.8c-1.2,0-3.2-0.6-5.9-1.9c-2-0.9-3.8-2.2-5.3-3.7c-1.5-1.5-3-3.4-4.6-5.8c-1.5-2.2-2.2-4.2-2.2-6.1v-0.3
	c0.1-1.9,0.8-3.5,2.3-4.9c0.5-0.5,1-0.7,1.6-0.7c0.1,0,0.3,0,0.6,0c0.3,0,0.4,0,0.6,0c0.4,0,0.7,0.1,0.8,0.2
	c0.2,0.1,0.3,0.4,0.5,0.9c0.2,0.4,0.5,1.3,1,2.8c0.5,1.4,0.8,2.2,0.8,2.3c0,0.4-0.4,1-1.1,1.8c-0.7,0.8-1.1,1.2-1.1,1.5
	c0,0.1,0.1,0.3,0.2,0.5c0.7,1.5,1.8,2.9,3.2,4.3c1.2,1.1,2.7,2.2,4.7,3.2c0.3,0.1,0.5,0.2,0.7,0.2c0.3,0,0.9-0.5,1.7-1.5
	c0.8-1,1.4-1.5,1.6-1.5c0.3,0,1.1,0.4,2.7,1.2l0.4,0.2c1.8,0.9,2.7,1.5,2.8,1.7c0,0.1,0.1,0.3,0.1,0.5c0,0.7-0.2,1.5-0.5,2.4
	C35.6,33,34.9,33.6,33.8,34.2z"/>
</svg>
