<?xml version="1.0" encoding="utf-8"?>
<!-- Generator: Adobe Illustrator 25.2.3, SVG Export Plug-In . SVG Version: 6.00 Build 0)  -->
<svg version="1.1" id="Camada_1" xmlns="http://www.w3.org/2000/svg" xmlns:xlink="http://www.w3.org/1999/xlink" x="0px" y="0px"
	 viewBox="0 0 48 48" style="enable-background:new 0 0 48 48;" xml:space="preserve">
<style type="text/css">
	.st0{fill-rule:evenodd;clip-rule:evenodd;fill:#FFFFFF;}
</style>
<path class="st0" d="M40.8,40.7C36.3,41,30.7,41.2,24,41.2c-3.7,0-6.9-0.1-9.6-0.2c-2.7-0.1-4.5-0.1-5.4-0.2l-1.3-0.1l-1-0.1
	c-0.6-0.1-1.1-0.2-1.5-0.3c-0.3-0.1-0.8-0.3-1.4-0.6s-1.1-0.7-1.5-1.1c-0.1-0.1-0.2-0.3-0.4-0.5c-0.2-0.2-0.4-0.7-0.8-1.6
	c-0.3-0.8-0.6-1.7-0.7-2.7c-0.1-1.1-0.3-2.4-0.3-3.7C0.1,29,0,28,0,27.2v-4.7c0-2.6,0.1-5.2,0.5-7.8c0.1-1,0.3-1.9,0.7-2.7
	c0.3-0.8,0.6-1.3,0.9-1.6L2.4,10c0.2-0.3,0.5-0.5,0.8-0.7C3.4,9.1,3.7,8.9,4,8.7c0.3-0.1,0.5-0.3,0.7-0.3C5,8.3,5.2,8.2,5.5,8.2
	C5.8,8.1,6,8.1,6.1,8.1C6.3,8,6.5,8,6.8,8c0.3,0,0.4,0,0.5,0C11.7,7.6,17.3,7.5,24,7.5c3,0,5.9,0,8.7,0.1c2.8,0.1,4.8,0.2,6.1,0.3
	l2,0.1c0,0,0.2,0,0.5,0c0.3,0,0.5,0.1,0.6,0.1c0.1,0,0.3,0.1,0.6,0.1c0.3,0.1,0.5,0.1,0.8,0.2c0.2,0.1,0.5,0.2,0.8,0.3
	c0.3,0.1,0.6,0.3,0.8,0.5c0.3,0.2,0.5,0.4,0.8,0.7c0.1,0.1,0.2,0.3,0.4,0.5c0.2,0.2,0.4,0.7,0.8,1.6c0.3,0.8,0.6,1.7,0.7,2.7
	c0.1,1.1,0.3,2.4,0.3,3.7c0.1,1.3,0.1,2.3,0.1,3v4.7c0,2.6-0.1,5.2-0.5,7.8c-0.1,1-0.3,1.9-0.7,2.7c-0.3,0.8-0.6,1.3-0.9,1.6
	l-0.4,0.5c-0.2,0.3-0.5,0.5-0.8,0.7c-0.3,0.2-0.5,0.4-0.8,0.5c-0.3,0.1-0.5,0.2-0.8,0.3c-0.2,0.1-0.5,0.2-0.8,0.2
	c-0.3,0.1-0.5,0.1-0.6,0.1c-0.1,0-0.3,0.1-0.6,0.1C41,40.7,40.8,40.7,40.8,40.7z M19,17.1v13.5l13-6.7L19,17.1z"/>
</svg>
